<svg xmlns="http://www.w3.org/2000/svg" xmlns:xlink="http://www.w3.org/1999/xlink" width="128" zoomAndPan="magnify" viewBox="0 0 96 95.999999" height="128" preserveAspectRatio="xMidYMid meet" version="1.2"><defs><clipPath id="b2be453d2c"><path d="M 37 26.839844 L 74 26.839844 L 74 68.839844 L 37 68.839844 Z M 37 26.839844 "/></clipPath><clipPath id="6fac9fe43c"><path d="M 37 26.839844 L 74 26.839844 L 74 68.839844 L 37 68.839844 Z M 37 26.839844 "/></clipPath></defs><g id="4e7a856f01"><g clip-rule="nonzero" clip-path="url(#b2be453d2c)"><path style=" stroke:none;fill-rule:nonzero;fill:#5ec232;fill-opacity:1;" d="M 56.8125 37.125 C 51.785156 39.257812 46.941406 41.960938 43.765625 46.535156 C 41.464844 49.851562 40.148438 53.648438 39.226562 57.542969 C 39.121094 57.980469 39.089844 58.976562 38.804688 59.324219 C 38.804688 59.324219 44.480469 49.71875 58.8125 46.316406 C 58.8125 46.316406 54.273438 48.546875 50.691406 50.863281 C 36.226562 60.21875 37.765625 68.84375 37.765625 68.84375 C 37.765625 68.84375 38.632812 65.125 47.121094 61.539062 C 53.03125 59.042969 60.71875 56.664062 66.65625 51.578125 C 77.867188 41.976562 72.800781 26.84375 72.800781 26.84375 C 72.800781 26.84375 71.671875 30.824219 56.8125 37.125 "/></g><path style=" stroke:none;fill-rule:nonzero;fill:#5ec232;fill-opacity:1;" d="M 30.097656 46.121094 C 28.5 44.910156 26.578125 43.789062 24.273438 42.808594 C 23.230469 42.367188 22.109375 41.953125 20.902344 41.570312 C 20.902344 41.570312 17.894531 56.8125 33.679688 62.417969 C 33.839844 62.472656 34 62.53125 34.164062 62.585938 C 34.164062 62.585938 34.089844 58.808594 31.613281 54.828125 C 31.203125 54.171875 30.730469 53.507812 30.179688 52.855469 C 29.804688 52.410156 29.390625 51.964844 28.9375 51.53125 C 28.9375 51.53125 29.390625 51.726562 30.09375 52.183594 C 31.085938 52.835938 32.570312 54.019531 33.964844 55.945312 C 35.449219 57.992188 36.832031 60.878906 37.402344 64.859375 C 37.402344 64.859375 38.3125 61.261719 37.230469 56.753906 C 36.410156 53.34375 34.453125 49.414062 30.097656 46.121094 "/><g clip-rule="nonzero" clip-path="url(#6fac9fe43c)"><path style=" stroke:none;fill-rule:nonzero;fill:#5ec232;fill-opacity:1;" d="M 56.8125 37.125 C 51.785156 39.257812 46.941406 41.960938 43.765625 46.535156 C 41.464844 49.851562 40.148438 53.648438 39.226562 57.542969 C 39.121094 57.980469 39.089844 58.976562 38.804688 59.324219 C 38.804688 59.324219 44.480469 49.71875 58.8125 46.316406 C 58.8125 46.316406 54.273438 48.546875 50.691406 50.863281 C 36.226562 60.21875 37.765625 68.84375 37.765625 68.84375 C 37.765625 68.84375 38.632812 65.125 47.121094 61.539062 C 53.03125 59.042969 60.71875 56.664062 66.65625 51.578125 C 77.867188 41.976562 72.800781 26.84375 72.800781 26.84375 C 72.800781 26.84375 71.671875 30.824219 56.8125 37.125 "/></g><path style=" stroke:none;fill-rule:nonzero;fill:#5ec232;fill-opacity:1;" d="M 30.097656 46.121094 C 28.5 44.910156 26.578125 43.789062 24.273438 42.808594 C 23.230469 42.367188 22.109375 41.953125 20.902344 41.570312 C 20.902344 41.570312 17.894531 56.8125 33.679688 62.417969 C 33.839844 62.472656 34 62.53125 34.164062 62.585938 C 34.164062 62.585938 34.089844 58.808594 31.613281 54.828125 C 31.203125 54.171875 30.730469 53.507812 30.179688 52.855469 C 29.804688 52.410156 29.390625 51.964844 28.9375 51.53125 C 28.9375 51.53125 29.390625 51.726562 30.09375 52.183594 C 31.085938 52.835938 32.570312 54.019531 33.964844 55.945312 C 35.449219 57.992188 36.832031 60.878906 37.402344 64.859375 C 37.402344 64.859375 38.3125 61.261719 37.230469 56.753906 C 36.410156 53.34375 34.453125 49.414062 30.097656 46.121094 "/></g></svg>