<svg xmlns="http://www.w3.org/2000/svg" xmlns:xlink="http://www.w3.org/1999/xlink" width="400" zoomAndPan="magnify" viewBox="0 0 300 135.000003" height="180" preserveAspectRatio="xMidYMid meet" version="1.2"><defs><clipPath id="b05abde5c5"><path d="M 207 24.5625 L 244 24.5625 L 244 66.253906 L 207 66.253906 Z M 207 24.5625 "/></clipPath></defs><g id="773bf24c8c"><g clip-rule="nonzero" clip-path="url(#b05abde5c5)"><path style=" stroke:none;fill-rule:nonzero;fill:#5ec232;fill-opacity:1;" d="M 226.011719 34.773438 C 221.019531 36.890625 216.210938 39.574219 213.058594 44.113281 C 210.777344 47.40625 209.46875 51.175781 208.554688 55.039062 C 208.449219 55.476562 208.417969 56.460938 208.132812 56.808594 C 208.132812 56.808594 213.769531 47.273438 227.992188 43.898438 C 227.992188 43.898438 223.492188 46.109375 219.933594 48.410156 C 205.574219 57.699219 207.105469 66.257812 207.105469 66.257812 C 207.105469 66.257812 207.964844 62.566406 216.390625 59.007812 C 222.253906 56.527344 229.890625 54.167969 235.785156 49.121094 C 246.910156 39.585938 241.882812 24.566406 241.882812 24.566406 C 241.882812 24.566406 240.757812 28.515625 226.011719 34.773438 "/></g><path style=" stroke:none;fill-rule:nonzero;fill:#5ec232;fill-opacity:1;" d="M 199.492188 43.699219 C 197.90625 42.5 196 41.386719 193.710938 40.414062 C 192.675781 39.972656 191.5625 39.5625 190.363281 39.1875 C 190.363281 39.1875 187.378906 54.3125 203.046875 59.878906 C 203.207031 59.933594 203.367188 59.992188 203.53125 60.046875 C 203.53125 60.046875 203.453125 56.296875 200.996094 52.34375 C 200.589844 51.691406 200.121094 51.035156 199.574219 50.386719 C 199.199219 49.941406 198.789062 49.503906 198.339844 49.070312 C 198.339844 49.070312 198.792969 49.265625 199.488281 49.722656 C 200.472656 50.367188 201.949219 51.542969 203.332031 53.453125 C 204.804688 55.488281 206.175781 58.351562 206.742188 62.300781 C 206.742188 62.300781 207.648438 58.734375 206.570312 54.253906 C 205.757812 50.871094 203.816406 46.96875 199.492188 43.699219 "/><g style="fill:#ffffff;fill-opacity:1;"><g transform="translate(45.394669, 88.461914)"><path style="stroke:none" d="M 18.890625 0 C 20.703125 0 22.351562 -0.09375 23.84375 -0.28125 C 25.332031 -0.476562 26.800781 -0.65625 28.25 -0.8125 C 29.695312 -0.96875 31.226562 -0.988281 32.84375 -0.875 L 32.84375 -1.734375 C 32.84375 -1.734375 32.609375 -1.820312 32.140625 -2 C 31.679688 -2.175781 31.21875 -2.59375 30.75 -3.25 C 30.289062 -3.90625 30.0625 -4.90625 30.0625 -6.25 L 30.0625 -11.9375 C 30.0625 -13.320312 30.289062 -14.332031 30.75 -14.96875 C 31.21875 -15.613281 31.679688 -16.019531 32.140625 -16.1875 C 32.609375 -16.363281 32.84375 -16.453125 32.84375 -16.453125 L 32.84375 -17.328125 L 15.46875 -17.328125 L 14.140625 -9.4375 L 14.71875 -9.09375 C 14.71875 -9.09375 14.945312 -9.5 15.40625 -10.3125 C 15.875 -11.125 16.550781 -12.019531 17.4375 -13 C 18.320312 -13.988281 19.363281 -14.773438 20.5625 -15.359375 C 20.800781 -15.472656 21.050781 -15.488281 21.3125 -15.40625 C 21.582031 -15.332031 21.804688 -15.0625 21.984375 -14.59375 C 22.160156 -14.132812 22.25 -13.34375 22.25 -12.21875 L 22.25 -5.046875 C 22.25 -4.265625 22.054688 -3.660156 21.671875 -3.234375 C 21.285156 -2.816406 20.835938 -2.53125 20.328125 -2.375 C 19.828125 -2.21875 19.40625 -2.140625 19.0625 -2.140625 C 17.320312 -2.140625 15.695312 -2.820312 14.1875 -4.1875 C 12.6875 -5.5625 11.472656 -7.398438 10.546875 -9.703125 C 9.617188 -12.003906 9.15625 -14.546875 9.15625 -17.328125 C 9.15625 -20.109375 9.550781 -22.632812 10.34375 -24.90625 C 11.132812 -27.1875 12.234375 -29.007812 13.640625 -30.375 C 15.054688 -31.75 16.648438 -32.4375 18.421875 -32.4375 C 19.773438 -32.4375 20.816406 -32.140625 21.546875 -31.546875 C 22.285156 -30.953125 22.78125 -30.226562 23.03125 -29.375 C 23.28125 -28.519531 23.328125 -27.695312 23.171875 -26.90625 C 23.015625 -26.113281 22.707031 -25.523438 22.25 -25.140625 C 24.289062 -24.753906 25.9375 -25.003906 27.1875 -25.890625 C 28.445312 -26.785156 29.539062 -27.945312 30.46875 -29.375 C 29.15625 -30.757812 27.484375 -31.882812 25.453125 -32.75 C 23.429688 -33.625 21.085938 -34.0625 18.421875 -34.0625 C 14.640625 -34.0625 11.367188 -33.296875 8.609375 -31.765625 C 5.847656 -30.242188 3.722656 -28.195312 2.234375 -25.625 C 0.742188 -23.0625 0 -20.195312 0 -17.03125 C 0 -13.945312 0.75 -11.109375 2.25 -8.515625 C 3.757812 -5.929688 5.925781 -3.875 8.75 -2.34375 C 11.570312 -0.820312 14.953125 -0.0390625 18.890625 0 Z M 18.890625 0 "/></g></g><g style="fill:#ffffff;fill-opacity:1;"><g transform="translate(79.928057, 88.461914)"><path style="stroke:none" d="M 17.671875 -17.375 C 15.773438 -17.375 13.789062 -17.316406 11.71875 -17.203125 C 9.65625 -17.085938 7.734375 -16.769531 5.953125 -16.25 C 4.179688 -15.726562 2.742188 -14.867188 1.640625 -13.671875 C 0.546875 -12.472656 0 -10.8125 0 -8.6875 C 0 -7.101562 0.335938 -5.65625 1.015625 -4.34375 C 1.691406 -3.03125 2.984375 -1.976562 4.890625 -1.1875 C 6.804688 -0.394531 9.597656 0 13.265625 0 C 14.390625 0 15.441406 -0.09375 16.421875 -0.28125 C 17.410156 -0.476562 18.15625 -0.828125 18.65625 -1.328125 C 18.726562 -1.054688 18.988281 -0.765625 19.4375 -0.453125 C 19.882812 -0.148438 20.609375 0 21.609375 0 L 29.546875 0 L 29.546875 -0.8125 C 29.546875 -0.8125 29.3125 -0.894531 28.84375 -1.0625 C 28.382812 -1.238281 27.921875 -1.644531 27.453125 -2.28125 C 26.992188 -2.925781 26.765625 -3.941406 26.765625 -5.328125 C 26.765625 -5.328125 26.753906 -6.359375 26.734375 -8.421875 C 26.710938 -10.492188 26.722656 -13.171875 26.765625 -16.453125 C 26.804688 -18.503906 26.410156 -20.144531 25.578125 -21.375 C 24.742188 -22.613281 23.695312 -23.5625 22.4375 -24.21875 C 21.1875 -24.875 19.90625 -25.316406 18.59375 -25.546875 C 17.28125 -25.773438 16.128906 -25.890625 15.140625 -25.890625 C 14.160156 -25.890625 13.554688 -25.890625 13.328125 -25.890625 C 11.546875 -25.816406 10.082031 -25.578125 8.9375 -25.171875 C 7.800781 -24.765625 6.835938 -24.222656 6.046875 -23.546875 C 5.253906 -22.867188 4.457031 -22.03125 3.65625 -21.03125 L 10.890625 -18.890625 C 10.460938 -19.546875 10.410156 -20.257812 10.734375 -21.03125 C 11.066406 -21.800781 11.597656 -22.445312 12.328125 -22.96875 C 13.066406 -23.488281 13.84375 -23.726562 14.65625 -23.6875 C 15.46875 -23.65625 16.171875 -23.15625 16.765625 -22.1875 C 17.367188 -21.21875 17.671875 -19.613281 17.671875 -17.375 Z M 17.671875 -15.9375 C 17.671875 -14.082031 17.671875 -12.625 17.671875 -11.5625 C 17.671875 -10.5 17.671875 -9.65625 17.671875 -9.03125 C 17.671875 -8.414062 17.671875 -7.859375 17.671875 -7.359375 C 17.671875 -6.859375 17.671875 -6.238281 17.671875 -5.5 C 17.671875 -4.382812 17.457031 -3.546875 17.03125 -2.984375 C 16.601562 -2.421875 16.140625 -2.050781 15.640625 -1.875 C 15.140625 -1.707031 14.773438 -1.625 14.546875 -1.625 C 12.648438 -1.625 11.273438 -2.203125 10.421875 -3.359375 C 9.578125 -4.515625 9.15625 -6.332031 9.15625 -8.8125 C 9.15625 -10.507812 9.425781 -11.835938 9.96875 -12.796875 C 10.507812 -13.765625 11.210938 -14.460938 12.078125 -14.890625 C 12.953125 -15.316406 13.878906 -15.585938 14.859375 -15.703125 C 15.847656 -15.816406 16.785156 -15.894531 17.671875 -15.9375 Z M 17.671875 -15.9375 "/></g></g><g style="fill:#ffffff;fill-opacity:1;"><g transform="translate(111.100812, 88.461914)"><path style="stroke:none" d="M 11.9375 -23.984375 C 11.9375 -24.679688 11.9375 -25.238281 11.9375 -25.65625 C 11.9375 -26.082031 11.9375 -26.296875 11.9375 -26.296875 L 0.0625 -24.96875 L 0.0625 -24.109375 C 0.0625 -24.109375 0.289062 -24.019531 0.75 -23.84375 C 1.21875 -23.664062 1.679688 -23.257812 2.140625 -22.625 C 2.609375 -21.988281 2.84375 -20.972656 2.84375 -19.578125 L 2.84375 -5.15625 C 2.84375 -3.769531 2.609375 -2.773438 2.140625 -2.171875 C 1.679688 -1.578125 1.207031 -1.203125 0.71875 -1.046875 C 0.238281 -0.890625 0 -0.8125 0 -0.8125 L 0 0 L 14.71875 0 L 14.71875 -0.8125 C 14.71875 -0.8125 14.484375 -0.894531 14.015625 -1.0625 C 13.554688 -1.238281 13.09375 -1.625 12.625 -2.21875 C 12.164062 -2.820312 11.9375 -3.765625 11.9375 -5.046875 C 11.9375 -5.046875 11.9375 -5.441406 11.9375 -6.234375 C 11.9375 -7.023438 11.9375 -8.046875 11.9375 -9.296875 C 11.9375 -10.554688 11.9375 -11.910156 11.9375 -13.359375 C 11.9375 -14.804688 11.9375 -16.1875 11.9375 -17.5 C 11.9375 -18.8125 11.9375 -19.921875 11.9375 -20.828125 C 11.9375 -21.734375 11.9375 -22.265625 11.9375 -22.421875 C 14.019531 -23.546875 15.648438 -23.785156 16.828125 -23.140625 C 18.003906 -22.503906 18.863281 -21.359375 19.40625 -19.703125 L 25.78125 -21.671875 C 25.4375 -22.941406 24.78125 -23.953125 23.8125 -24.703125 C 22.84375 -25.460938 21.691406 -25.945312 20.359375 -26.15625 C 19.023438 -26.375 17.625 -26.304688 16.15625 -25.953125 C 14.695312 -25.609375 13.289062 -24.953125 11.9375 -23.984375 Z M 11.9375 -23.984375 "/></g></g><g style="fill:#ffffff;fill-opacity:1;"><g transform="translate(138.101751, 88.461914)"><path style="stroke:none" d="M 17.5 -23.75 C 15.488281 -25.21875 13.445312 -25.960938 11.375 -25.984375 C 9.3125 -26.003906 7.421875 -25.441406 5.703125 -24.296875 C 3.984375 -23.160156 2.601562 -21.597656 1.5625 -19.609375 C 0.519531 -17.617188 0 -15.332031 0 -12.75 C 0 -11.238281 0.179688 -9.726562 0.546875 -8.21875 C 0.910156 -6.71875 1.566406 -5.347656 2.515625 -4.109375 C 3.460938 -2.878906 4.804688 -1.882812 6.546875 -1.125 C 8.285156 -0.375 10.523438 0 13.265625 0 L 29.3125 0 L 29.3125 -0.8125 C 29.3125 -0.8125 29.078125 -0.894531 28.609375 -1.0625 C 28.148438 -1.238281 27.6875 -1.625 27.21875 -2.21875 C 26.757812 -2.820312 26.53125 -3.765625 26.53125 -5.046875 L 26.53125 -26.765625 C 26.53125 -28.003906 26.539062 -29.171875 26.5625 -30.265625 C 26.582031 -31.367188 26.59375 -32.269531 26.59375 -32.96875 C 26.59375 -33.664062 26.59375 -34.015625 26.59375 -34.015625 L 14.71875 -32.671875 L 14.71875 -31.859375 C 14.71875 -31.859375 14.945312 -31.769531 15.40625 -31.59375 C 15.875 -31.425781 16.335938 -31.023438 16.796875 -30.390625 C 17.265625 -29.753906 17.5 -28.738281 17.5 -27.34375 Z M 17.5 -22.1875 L 17.5 -5.625 C 17.539062 -4.226562 17.382812 -3.238281 17.03125 -2.65625 C 16.6875 -2.082031 16.289062 -1.738281 15.84375 -1.625 C 15.394531 -1.507812 15 -1.453125 14.65625 -1.453125 C 13.539062 -1.453125 12.625 -1.804688 11.90625 -2.515625 C 11.1875 -3.234375 10.632812 -4.171875 10.25 -5.328125 C 9.863281 -6.484375 9.59375 -7.726562 9.4375 -9.0625 C 9.289062 -10.394531 9.21875 -11.660156 9.21875 -12.859375 C 9.21875 -14.597656 9.34375 -16.210938 9.59375 -17.703125 C 9.84375 -19.191406 10.285156 -20.425781 10.921875 -21.40625 C 11.554688 -22.394531 12.40625 -22.984375 13.46875 -23.171875 C 14.53125 -23.367188 15.875 -23.039062 17.5 -22.1875 Z M 17.5 -22.1875 "/></g></g><g style="fill:#ffffff;fill-opacity:1;"><g transform="translate(169.100686, 88.461914)"><path style="stroke:none" d="M 18.59375 -12.796875 C 19.90625 -12.796875 21.1875 -12.910156 22.4375 -13.140625 C 23.695312 -13.378906 24.640625 -13.828125 25.265625 -14.484375 C 25.535156 -15.484375 25.523438 -16.648438 25.234375 -17.984375 C 24.941406 -19.316406 24.34375 -20.601562 23.4375 -21.84375 C 22.53125 -23.082031 21.289062 -24.101562 19.71875 -24.90625 C 18.15625 -25.71875 16.238281 -26.125 13.96875 -26.125 C 11.101562 -26.125 8.628906 -25.535156 6.546875 -24.359375 C 4.460938 -23.179688 2.847656 -21.585938 1.703125 -19.578125 C 0.566406 -17.566406 0 -15.304688 0 -12.796875 C 0 -9.828125 0.644531 -7.394531 1.9375 -5.5 C 3.226562 -3.613281 5.03125 -2.222656 7.34375 -1.328125 C 9.664062 -0.441406 12.316406 0 15.296875 0 C 17.421875 0 19.0625 -0.238281 20.21875 -0.71875 C 21.375 -1.207031 22.210938 -1.738281 22.734375 -2.3125 C 23.253906 -2.894531 23.632812 -3.359375 23.875 -3.703125 L 22.3125 -6.4375 C 22.113281 -5.96875 21.789062 -5.347656 21.34375 -4.578125 C 20.90625 -3.804688 20.222656 -3.117188 19.296875 -2.515625 C 18.367188 -1.921875 17.054688 -1.625 15.359375 -1.625 C 13.503906 -1.582031 12.015625 -2.46875 10.890625 -4.28125 C 9.773438 -6.101562 9.21875 -9.003906 9.21875 -12.984375 C 9.21875 -12.984375 9.523438 -12.972656 10.140625 -12.953125 C 10.753906 -12.929688 11.550781 -12.910156 12.53125 -12.890625 C 13.519531 -12.867188 14.546875 -12.847656 15.609375 -12.828125 C 16.671875 -12.804688 17.664062 -12.796875 18.59375 -12.796875 Z M 13.90625 -24.390625 C 14.875 -24.390625 15.675781 -24.070312 16.3125 -23.4375 C 16.945312 -22.800781 17.410156 -22.019531 17.703125 -21.09375 C 17.992188 -20.164062 18.117188 -19.238281 18.078125 -18.3125 C 18.035156 -17.382812 17.820312 -16.597656 17.4375 -15.953125 C 17.050781 -15.316406 16.507812 -15 15.8125 -15 L 9.265625 -15 C 9.265625 -17.75 9.601562 -20 10.28125 -21.75 C 10.957031 -23.507812 12.164062 -24.390625 13.90625 -24.390625 Z M 13.90625 -24.390625 "/></g></g><g style="fill:#ffffff;fill-opacity:1;"><g transform="translate(195.811913, 88.461914)"><path style="stroke:none" d="M 11.640625 -23.515625 C 11.640625 -24.296875 11.640625 -24.90625 11.640625 -25.34375 C 11.640625 -25.789062 11.640625 -26.015625 11.640625 -26.015625 L 0 -24.6875 L 0 -23.875 C 0 -23.875 0.226562 -23.773438 0.6875 -23.578125 C 1.15625 -23.390625 1.617188 -22.972656 2.078125 -22.328125 C 2.546875 -21.691406 2.78125 -20.679688 2.78125 -19.296875 L 2.84375 -5.09375 C 2.84375 -3.75 2.609375 -2.773438 2.140625 -2.171875 C 1.679688 -1.578125 1.21875 -1.203125 0.75 -1.046875 C 0.289062 -0.890625 0.0390625 -0.8125 0 -0.8125 L 0 0 L 14.71875 0 L 14.71875 -0.8125 C 14.71875 -0.8125 14.484375 -0.894531 14.015625 -1.0625 C 13.554688 -1.238281 13.09375 -1.625 12.625 -2.21875 C 12.164062 -2.820312 11.9375 -3.765625 11.9375 -5.046875 C 11.9375 -5.046875 11.925781 -5.429688 11.90625 -6.203125 C 11.882812 -6.972656 11.863281 -7.972656 11.84375 -9.203125 C 11.820312 -10.441406 11.800781 -11.765625 11.78125 -13.171875 C 11.769531 -14.585938 11.753906 -15.929688 11.734375 -17.203125 C 11.710938 -18.484375 11.691406 -19.578125 11.671875 -20.484375 C 11.648438 -21.390625 11.640625 -21.921875 11.640625 -22.078125 C 13.335938 -23.003906 14.695312 -23.359375 15.71875 -23.140625 C 16.75 -22.929688 17.503906 -22.304688 17.984375 -21.265625 C 18.472656 -20.222656 18.71875 -18.890625 18.71875 -17.265625 L 18.71875 -5.046875 C 18.71875 -3.765625 18.484375 -2.820312 18.015625 -2.21875 C 17.554688 -1.625 17.09375 -1.238281 16.625 -1.0625 C 16.164062 -0.894531 15.9375 -0.8125 15.9375 -0.8125 L 15.9375 0 L 30.59375 0 L 30.59375 -0.8125 C 30.59375 -0.8125 30.359375 -0.890625 29.890625 -1.046875 C 29.429688 -1.203125 28.96875 -1.578125 28.5 -2.171875 C 28.039062 -2.773438 27.8125 -3.75 27.8125 -5.09375 C 27.8125 -5.09375 27.8125 -5.710938 27.8125 -6.953125 C 27.8125 -8.191406 27.8125 -9.890625 27.8125 -12.046875 C 27.8125 -14.210938 27.8125 -16.6875 27.8125 -19.46875 C 27.8125 -20.820312 27.347656 -22.078125 26.421875 -23.234375 C 25.492188 -24.390625 24.25 -25.253906 22.6875 -25.828125 C 21.125 -26.410156 19.382812 -26.546875 17.46875 -26.234375 C 15.550781 -25.929688 13.609375 -25.023438 11.640625 -23.515625 Z M 11.640625 -23.515625 "/></g></g><g style="fill:#ffffff;fill-opacity:1;"><g transform="translate(228.143506, 88.461914)"><path style="stroke:none" d="M 11.46875 -25.953125 C 9.1875 -25.953125 7.273438 -25.644531 5.734375 -25.03125 C 4.191406 -24.414062 3.039062 -23.613281 2.28125 -22.625 C 1.53125 -21.632812 1.15625 -20.601562 1.15625 -19.53125 C 1.15625 -18.132812 1.4375 -16.984375 2 -16.078125 C 2.5625 -15.171875 3.238281 -14.4375 4.03125 -13.875 C 4.820312 -13.3125 5.5625 -12.894531 6.25 -12.625 C 6.945312 -12.351562 7.429688 -12.160156 7.703125 -12.046875 C 8.828125 -11.585938 9.851562 -11.101562 10.78125 -10.59375 C 11.707031 -10.09375 12.445312 -9.484375 13 -8.765625 C 13.5625 -8.054688 13.84375 -7.101562 13.84375 -5.90625 C 13.84375 -4.320312 13.378906 -3.269531 12.453125 -2.75 C 11.523438 -2.226562 10.460938 -1.96875 9.265625 -1.96875 C 7.796875 -1.96875 6.609375 -2.375 5.703125 -3.1875 C 4.796875 -4 4.242188 -5.003906 4.046875 -6.203125 C 3.859375 -7.398438 4.070312 -8.578125 4.6875 -9.734375 C 3.84375 -9.304688 3.175781 -8.71875 2.6875 -7.96875 C 2.207031 -7.21875 1.773438 -6.4375 1.390625 -5.625 C 1.003906 -4.8125 0.539062 -4.078125 0 -3.421875 C 0.695312 -2.609375 1.671875 -1.941406 2.921875 -1.421875 C 4.179688 -0.898438 5.484375 -0.519531 6.828125 -0.28125 C 8.179688 -0.0507812 9.320312 0.0625 10.25 0.0625 C 14.65625 0.0625 17.796875 -0.546875 19.671875 -1.765625 C 21.546875 -2.984375 22.484375 -4.847656 22.484375 -7.359375 C 22.484375 -8.984375 22.101562 -10.316406 21.34375 -11.359375 C 20.59375 -12.398438 19.628906 -13.25 18.453125 -13.90625 C 17.273438 -14.5625 16.019531 -15.117188 14.6875 -15.578125 C 13.351562 -16.046875 12.085938 -16.5 10.890625 -16.9375 C 9.691406 -17.382812 8.71875 -17.90625 7.96875 -18.5 C 7.21875 -19.101562 6.84375 -19.890625 6.84375 -20.859375 C 6.84375 -21.828125 7.226562 -22.734375 8 -23.578125 C 8.769531 -24.429688 9.925781 -24.859375 11.46875 -24.859375 C 12.394531 -24.859375 13.175781 -24.613281 13.8125 -24.125 C 14.457031 -23.644531 14.929688 -23.066406 15.234375 -22.390625 C 15.546875 -21.710938 15.691406 -21.066406 15.671875 -20.453125 C 15.648438 -19.835938 15.46875 -19.375 15.125 -19.0625 C 16.707031 -18.789062 17.988281 -18.984375 18.96875 -19.640625 C 19.957031 -20.296875 20.816406 -21.164062 21.546875 -22.25 C 20.546875 -23.332031 19.210938 -24.21875 17.546875 -24.90625 C 15.890625 -25.601562 13.863281 -25.953125 11.46875 -25.953125 Z M 11.46875 -25.953125 "/></g></g><g style="fill:#5ec232;fill-opacity:1;"><g transform="translate(208.666146, 104.468187)"><path style="stroke:none" d="M 2.453125 0.140625 C 1.929688 0.140625 1.503906 -0.0078125 1.171875 -0.3125 C 0.847656 -0.625 0.6875 -1.003906 0.6875 -1.453125 C 0.6875 -1.910156 0.847656 -2.296875 1.171875 -2.609375 C 1.503906 -2.921875 1.929688 -3.078125 2.453125 -3.078125 C 2.953125 -3.078125 3.363281 -2.921875 3.6875 -2.609375 C 4.019531 -2.296875 4.1875 -1.910156 4.1875 -1.453125 C 4.1875 -1.003906 4.019531 -0.625 3.6875 -0.3125 C 3.363281 -0.0078125 2.953125 0.140625 2.453125 0.140625 Z M 2.453125 0.140625 "/></g></g><g style="fill:#5ec232;fill-opacity:1;"><g transform="translate(213.527668, 104.468187)"><path style="stroke:none" d="M 0.484375 -4.8125 C 0.484375 -5.8125 0.6875 -6.6875 1.09375 -7.4375 C 1.5 -8.1875 2.066406 -8.757812 2.796875 -9.15625 C 3.535156 -9.5625 4.375 -9.765625 5.3125 -9.765625 C 6.519531 -9.765625 7.53125 -9.445312 8.34375 -8.8125 C 9.15625 -8.175781 9.6875 -7.285156 9.9375 -6.140625 L 6.796875 -6.140625 C 6.535156 -6.878906 6.023438 -7.25 5.265625 -7.25 C 4.722656 -7.25 4.289062 -7.035156 3.96875 -6.609375 C 3.644531 -6.191406 3.484375 -5.59375 3.484375 -4.8125 C 3.484375 -4.03125 3.644531 -3.425781 3.96875 -3 C 4.289062 -2.582031 4.722656 -2.375 5.265625 -2.375 C 6.023438 -2.375 6.535156 -2.742188 6.796875 -3.484375 L 9.9375 -3.484375 C 9.6875 -2.359375 9.148438 -1.472656 8.328125 -0.828125 C 7.515625 -0.179688 6.507812 0.140625 5.3125 0.140625 C 4.375 0.140625 3.535156 -0.0546875 2.796875 -0.453125 C 2.066406 -0.859375 1.5 -1.4375 1.09375 -2.1875 C 0.6875 -2.9375 0.484375 -3.8125 0.484375 -4.8125 Z M 0.484375 -4.8125 "/></g></g><g style="fill:#5ec232;fill-opacity:1;"><g transform="translate(223.957517, 104.468187)"><path style="stroke:none" d="M 5.453125 0.140625 C 4.503906 0.140625 3.65625 -0.0546875 2.90625 -0.453125 C 2.15625 -0.859375 1.5625 -1.4375 1.125 -2.1875 C 0.695312 -2.9375 0.484375 -3.8125 0.484375 -4.8125 C 0.484375 -5.800781 0.703125 -6.671875 1.140625 -7.421875 C 1.578125 -8.179688 2.175781 -8.757812 2.9375 -9.15625 C 3.695312 -9.5625 4.546875 -9.765625 5.484375 -9.765625 C 6.429688 -9.765625 7.28125 -9.5625 8.03125 -9.15625 C 8.789062 -8.757812 9.390625 -8.179688 9.828125 -7.421875 C 10.265625 -6.671875 10.484375 -5.800781 10.484375 -4.8125 C 10.484375 -3.820312 10.257812 -2.945312 9.8125 -2.1875 C 9.375 -1.4375 8.769531 -0.859375 8 -0.453125 C 7.238281 -0.0546875 6.390625 0.140625 5.453125 0.140625 Z M 5.453125 -2.421875 C 6.015625 -2.421875 6.492188 -2.625 6.890625 -3.03125 C 7.285156 -3.445312 7.484375 -4.039062 7.484375 -4.8125 C 7.484375 -5.582031 7.289062 -6.171875 6.90625 -6.578125 C 6.519531 -6.992188 6.046875 -7.203125 5.484375 -7.203125 C 4.910156 -7.203125 4.429688 -7 4.046875 -6.59375 C 3.671875 -6.1875 3.484375 -5.59375 3.484375 -4.8125 C 3.484375 -4.039062 3.671875 -3.445312 4.046875 -3.03125 C 4.421875 -2.625 4.890625 -2.421875 5.453125 -2.421875 Z M 5.453125 -2.421875 "/></g></g><g style="fill:#5ec232;fill-opacity:1;"><g transform="translate(234.939027, 104.468187)"><path style="stroke:none" d="M 13.34375 -9.734375 C 14.539062 -9.734375 15.492188 -9.367188 16.203125 -8.640625 C 16.910156 -7.921875 17.265625 -6.914062 17.265625 -5.625 L 17.265625 0 L 14.328125 0 L 14.328125 -5.234375 C 14.328125 -5.847656 14.160156 -6.320312 13.828125 -6.65625 C 13.503906 -7 13.054688 -7.171875 12.484375 -7.171875 C 11.910156 -7.171875 11.457031 -7 11.125 -6.65625 C 10.800781 -6.320312 10.640625 -5.847656 10.640625 -5.234375 L 10.640625 0 L 7.703125 0 L 7.703125 -5.234375 C 7.703125 -5.847656 7.539062 -6.320312 7.21875 -6.65625 C 6.894531 -7 6.441406 -7.171875 5.859375 -7.171875 C 5.285156 -7.171875 4.832031 -7 4.5 -6.65625 C 4.175781 -6.320312 4.015625 -5.847656 4.015625 -5.234375 L 4.015625 0 L 1.0625 0 L 1.0625 -9.625 L 4.015625 -9.625 L 4.015625 -8.421875 C 4.316406 -8.816406 4.707031 -9.132812 5.1875 -9.375 C 5.675781 -9.613281 6.222656 -9.734375 6.828125 -9.734375 C 7.554688 -9.734375 8.203125 -9.578125 8.765625 -9.265625 C 9.335938 -8.953125 9.785156 -8.507812 10.109375 -7.9375 C 10.441406 -8.46875 10.894531 -8.898438 11.46875 -9.234375 C 12.039062 -9.566406 12.664062 -9.734375 13.34375 -9.734375 Z M 13.34375 -9.734375 "/></g></g><g style="fill:#ffffff;fill-opacity:1;"><g transform="translate(45.394669, 51.033806)"><path style="stroke:none" d="M 0.5625 -5.53125 C 0.5625 -6.6875 0.796875 -7.691406 1.265625 -8.546875 C 1.734375 -9.410156 2.382812 -10.070312 3.21875 -10.53125 C 4.0625 -11 5.023438 -11.234375 6.109375 -11.234375 C 7.503906 -11.234375 8.664062 -10.867188 9.59375 -10.140625 C 10.53125 -9.410156 11.144531 -8.382812 11.4375 -7.0625 L 7.8125 -7.0625 C 7.507812 -7.90625 6.921875 -8.328125 6.046875 -8.328125 C 5.429688 -8.328125 4.9375 -8.085938 4.5625 -7.609375 C 4.195312 -7.128906 4.015625 -6.4375 4.015625 -5.53125 C 4.015625 -4.632812 4.195312 -3.941406 4.5625 -3.453125 C 4.9375 -2.972656 5.429688 -2.734375 6.046875 -2.734375 C 6.921875 -2.734375 7.507812 -3.160156 7.8125 -4.015625 L 11.4375 -4.015625 C 11.144531 -2.710938 10.523438 -1.691406 9.578125 -0.953125 C 8.640625 -0.210938 7.484375 0.15625 6.109375 0.15625 C 5.023438 0.15625 4.0625 -0.0703125 3.21875 -0.53125 C 2.382812 -1 1.734375 -1.660156 1.265625 -2.515625 C 0.796875 -3.378906 0.5625 -4.382812 0.5625 -5.53125 Z M 0.5625 -5.53125 "/></g></g><g style="fill:#ffffff;fill-opacity:1;"><g transform="translate(57.395552, 51.033806)"><path style="stroke:none" d="M 11.671875 -5.71875 C 11.671875 -5.394531 11.648438 -5.0625 11.609375 -4.71875 L 3.921875 -4.71875 C 3.984375 -4.03125 4.207031 -3.503906 4.59375 -3.140625 C 4.976562 -2.773438 5.457031 -2.59375 6.03125 -2.59375 C 6.875 -2.59375 7.460938 -2.953125 7.796875 -3.671875 L 11.40625 -3.671875 C 11.21875 -2.941406 10.882812 -2.285156 10.40625 -1.703125 C 9.925781 -1.117188 9.320312 -0.660156 8.59375 -0.328125 C 7.863281 -0.00390625 7.050781 0.15625 6.15625 0.15625 C 5.070312 0.15625 4.101562 -0.0703125 3.25 -0.53125 C 2.40625 -1 1.742188 -1.660156 1.265625 -2.515625 C 0.796875 -3.378906 0.5625 -4.382812 0.5625 -5.53125 C 0.5625 -6.6875 0.796875 -7.691406 1.265625 -8.546875 C 1.734375 -9.410156 2.390625 -10.070312 3.234375 -10.53125 C 4.078125 -11 5.050781 -11.234375 6.15625 -11.234375 C 7.226562 -11.234375 8.179688 -11.003906 9.015625 -10.546875 C 9.847656 -10.097656 10.5 -9.457031 10.96875 -8.625 C 11.4375 -7.789062 11.671875 -6.820312 11.671875 -5.71875 Z M 8.203125 -6.609375 C 8.203125 -7.191406 8 -7.65625 7.59375 -8 C 7.195312 -8.34375 6.703125 -8.515625 6.109375 -8.515625 C 5.546875 -8.515625 5.066406 -8.347656 4.671875 -8.015625 C 4.285156 -7.679688 4.046875 -7.210938 3.953125 -6.609375 Z M 8.203125 -6.609375 "/></g></g><g style="fill:#ffffff;fill-opacity:1;"><g transform="translate(69.614631, 51.033806)"><path style="stroke:none" d="M 7.984375 -11.1875 C 9.273438 -11.1875 10.304688 -10.765625 11.078125 -9.921875 C 11.859375 -9.085938 12.25 -7.9375 12.25 -6.46875 L 12.25 0 L 8.875 0 L 8.875 -6.015625 C 8.875 -6.753906 8.679688 -7.328125 8.296875 -7.734375 C 7.910156 -8.148438 7.394531 -8.359375 6.75 -8.359375 C 6.101562 -8.359375 5.585938 -8.148438 5.203125 -7.734375 C 4.816406 -7.328125 4.625 -6.753906 4.625 -6.015625 L 4.625 0 L 1.234375 0 L 1.234375 -11.078125 L 4.625 -11.078125 L 4.625 -9.609375 C 4.96875 -10.097656 5.429688 -10.484375 6.015625 -10.765625 C 6.597656 -11.046875 7.253906 -11.1875 7.984375 -11.1875 Z M 7.984375 -11.1875 "/></g></g><g style="fill:#ffffff;fill-opacity:1;"><g transform="translate(82.984209, 51.033806)"><path style="stroke:none" d="M 7.40625 -2.875 L 7.40625 0 L 5.671875 0 C 4.441406 0 3.484375 -0.300781 2.796875 -0.90625 C 2.109375 -1.507812 1.765625 -2.488281 1.765625 -3.84375 L 1.765625 -8.25 L 0.421875 -8.25 L 0.421875 -11.078125 L 1.765625 -11.078125 L 1.765625 -13.765625 L 5.15625 -13.765625 L 5.15625 -11.078125 L 7.375 -11.078125 L 7.375 -8.25 L 5.15625 -8.25 L 5.15625 -3.8125 C 5.15625 -3.476562 5.234375 -3.238281 5.390625 -3.09375 C 5.554688 -2.945312 5.820312 -2.875 6.1875 -2.875 Z M 7.40625 -2.875 "/></g></g><g style="fill:#ffffff;fill-opacity:1;"><g transform="translate(91.037695, 51.033806)"><path style="stroke:none" d="M 12.171875 -11.078125 L 12.171875 0 L 8.765625 0 L 8.765625 -1.515625 C 8.421875 -1.023438 7.953125 -0.628906 7.359375 -0.328125 C 6.773438 -0.0234375 6.128906 0.125 5.421875 0.125 C 4.566406 0.125 3.816406 -0.0625 3.171875 -0.4375 C 2.523438 -0.820312 2.019531 -1.367188 1.65625 -2.078125 C 1.300781 -2.796875 1.125 -3.640625 1.125 -4.609375 L 1.125 -11.078125 L 4.5 -11.078125 L 4.5 -5.0625 C 4.5 -4.320312 4.691406 -3.742188 5.078125 -3.328125 C 5.460938 -2.921875 5.976562 -2.71875 6.625 -2.71875 C 7.289062 -2.71875 7.8125 -2.921875 8.1875 -3.328125 C 8.570312 -3.742188 8.765625 -4.320312 8.765625 -5.0625 L 8.765625 -11.078125 Z M 12.171875 -11.078125 "/></g></g><g style="fill:#ffffff;fill-opacity:1;"><g transform="translate(104.407269, 51.033806)"><path style="stroke:none" d="M 4.625 -9.234375 C 5.019531 -9.835938 5.515625 -10.3125 6.109375 -10.65625 C 6.703125 -11.007812 7.363281 -11.1875 8.09375 -11.1875 L 8.09375 -7.59375 L 7.15625 -7.59375 C 6.3125 -7.59375 5.675781 -7.410156 5.25 -7.046875 C 4.832031 -6.691406 4.625 -6.054688 4.625 -5.140625 L 4.625 0 L 1.234375 0 L 1.234375 -11.078125 L 4.625 -11.078125 Z M 4.625 -9.234375 "/></g></g><g style="fill:#ffffff;fill-opacity:1;"><g transform="translate(112.897151, 51.033806)"><path style="stroke:none" d="M 12.546875 -11.078125 L 5.59375 5.265625 L 1.9375 5.265625 L 4.484375 -0.375 L -0.015625 -11.078125 L 3.765625 -11.078125 L 6.328125 -4.140625 L 8.875 -11.078125 Z M 12.546875 -11.078125 "/></g></g><g style="fill:#ffffff;fill-opacity:1;"><g transform="translate(125.433613, 51.033806)"><path style="stroke:none" d="M 8.03125 -11.1875 C 9.300781 -11.1875 10.320312 -10.765625 11.09375 -9.921875 C 11.863281 -9.085938 12.25 -7.9375 12.25 -6.46875 L 12.25 0 L 8.875 0 L 8.875 -6.015625 C 8.875 -6.753906 8.679688 -7.328125 8.296875 -7.734375 C 7.910156 -8.148438 7.394531 -8.359375 6.75 -8.359375 C 6.101562 -8.359375 5.585938 -8.148438 5.203125 -7.734375 C 4.816406 -7.328125 4.625 -6.753906 4.625 -6.015625 L 4.625 0 L 1.234375 0 L 1.234375 -14.6875 L 4.625 -14.6875 L 4.625 -9.578125 C 4.96875 -10.066406 5.4375 -10.457031 6.03125 -10.75 C 6.625 -11.039062 7.289062 -11.1875 8.03125 -11.1875 Z M 8.03125 -11.1875 "/></g></g><g style="fill:#ffffff;fill-opacity:1;"><g transform="translate(138.803183, 51.033806)"><path style="stroke:none" d="M 6.265625 0.15625 C 5.179688 0.15625 4.207031 -0.0703125 3.34375 -0.53125 C 2.476562 -1 1.796875 -1.660156 1.296875 -2.515625 C 0.804688 -3.378906 0.5625 -4.382812 0.5625 -5.53125 C 0.5625 -6.675781 0.8125 -7.679688 1.3125 -8.546875 C 1.8125 -9.410156 2.5 -10.070312 3.375 -10.53125 C 4.25 -11 5.226562 -11.234375 6.3125 -11.234375 C 7.394531 -11.234375 8.375 -11 9.25 -10.53125 C 10.125 -10.070312 10.8125 -9.410156 11.3125 -8.546875 C 11.8125 -7.679688 12.0625 -6.675781 12.0625 -5.53125 C 12.0625 -4.394531 11.804688 -3.394531 11.296875 -2.53125 C 10.785156 -1.664062 10.085938 -1 9.203125 -0.53125 C 8.328125 -0.0703125 7.347656 0.15625 6.265625 0.15625 Z M 6.265625 -2.78125 C 6.921875 -2.78125 7.472656 -3.015625 7.921875 -3.484375 C 8.378906 -3.960938 8.609375 -4.644531 8.609375 -5.53125 C 8.609375 -6.414062 8.382812 -7.097656 7.9375 -7.578125 C 7.5 -8.054688 6.957031 -8.296875 6.3125 -8.296875 C 5.644531 -8.296875 5.09375 -8.0625 4.65625 -7.59375 C 4.226562 -7.125 4.015625 -6.4375 4.015625 -5.53125 C 4.015625 -4.644531 4.226562 -3.960938 4.65625 -3.484375 C 5.082031 -3.015625 5.617188 -2.78125 6.265625 -2.78125 Z M 6.265625 -2.78125 "/></g></g><g style="fill:#ffffff;fill-opacity:1;"><g transform="translate(151.438825, 51.033806)"><path style="stroke:none" d="M 12.171875 -11.078125 L 12.171875 0 L 8.765625 0 L 8.765625 -1.515625 C 8.421875 -1.023438 7.953125 -0.628906 7.359375 -0.328125 C 6.773438 -0.0234375 6.128906 0.125 5.421875 0.125 C 4.566406 0.125 3.816406 -0.0625 3.171875 -0.4375 C 2.523438 -0.820312 2.019531 -1.367188 1.65625 -2.078125 C 1.300781 -2.796875 1.125 -3.640625 1.125 -4.609375 L 1.125 -11.078125 L 4.5 -11.078125 L 4.5 -5.0625 C 4.5 -4.320312 4.691406 -3.742188 5.078125 -3.328125 C 5.460938 -2.921875 5.976562 -2.71875 6.625 -2.71875 C 7.289062 -2.71875 7.8125 -2.921875 8.1875 -3.328125 C 8.570312 -3.742188 8.765625 -4.320312 8.765625 -5.0625 L 8.765625 -11.078125 Z M 12.171875 -11.078125 "/></g></g><g style="fill:#ffffff;fill-opacity:1;"><g transform="translate(164.808404, 51.033806)"><path style="stroke:none" d="M 5.734375 0.15625 C 4.765625 0.15625 3.90625 -0.00390625 3.15625 -0.328125 C 2.40625 -0.660156 1.8125 -1.113281 1.375 -1.6875 C 0.9375 -2.269531 0.691406 -2.914062 0.640625 -3.625 L 3.984375 -3.625 C 4.023438 -3.25 4.203125 -2.941406 4.515625 -2.703125 C 4.835938 -2.460938 5.226562 -2.34375 5.6875 -2.34375 C 6.113281 -2.34375 6.441406 -2.425781 6.671875 -2.59375 C 6.910156 -2.757812 7.03125 -2.972656 7.03125 -3.234375 C 7.03125 -3.546875 6.863281 -3.78125 6.53125 -3.9375 C 6.195312 -4.09375 5.660156 -4.257812 4.921875 -4.4375 C 4.128906 -4.625 3.46875 -4.820312 2.9375 -5.03125 C 2.40625 -5.238281 1.945312 -5.5625 1.5625 -6 C 1.1875 -6.445312 1 -7.046875 1 -7.796875 C 1 -8.429688 1.171875 -9.007812 1.515625 -9.53125 C 1.867188 -10.050781 2.382812 -10.460938 3.0625 -10.765625 C 3.75 -11.078125 4.5625 -11.234375 5.5 -11.234375 C 6.882812 -11.234375 7.976562 -10.890625 8.78125 -10.203125 C 9.582031 -9.515625 10.039062 -8.601562 10.15625 -7.46875 L 7.03125 -7.46875 C 6.976562 -7.84375 6.804688 -8.144531 6.515625 -8.375 C 6.234375 -8.601562 5.859375 -8.71875 5.390625 -8.71875 C 4.992188 -8.71875 4.691406 -8.640625 4.484375 -8.484375 C 4.273438 -8.328125 4.171875 -8.117188 4.171875 -7.859375 C 4.171875 -7.535156 4.335938 -7.296875 4.671875 -7.140625 C 5.003906 -6.984375 5.53125 -6.828125 6.25 -6.671875 C 7.070312 -6.453125 7.738281 -6.238281 8.25 -6.03125 C 8.769531 -5.832031 9.222656 -5.503906 9.609375 -5.046875 C 10.003906 -4.585938 10.207031 -3.976562 10.21875 -3.21875 C 10.21875 -2.570312 10.035156 -1.992188 9.671875 -1.484375 C 9.304688 -0.972656 8.78125 -0.570312 8.09375 -0.28125 C 7.414062 0.0078125 6.628906 0.15625 5.734375 0.15625 Z M 5.734375 0.15625 "/></g></g><g style="fill:#ffffff;fill-opacity:1;"><g transform="translate(175.876979, 51.033806)"><path style="stroke:none" d="M 11.671875 -5.71875 C 11.671875 -5.394531 11.648438 -5.0625 11.609375 -4.71875 L 3.921875 -4.71875 C 3.984375 -4.03125 4.207031 -3.503906 4.59375 -3.140625 C 4.976562 -2.773438 5.457031 -2.59375 6.03125 -2.59375 C 6.875 -2.59375 7.460938 -2.953125 7.796875 -3.671875 L 11.40625 -3.671875 C 11.21875 -2.941406 10.882812 -2.285156 10.40625 -1.703125 C 9.925781 -1.117188 9.320312 -0.660156 8.59375 -0.328125 C 7.863281 -0.00390625 7.050781 0.15625 6.15625 0.15625 C 5.070312 0.15625 4.101562 -0.0703125 3.25 -0.53125 C 2.40625 -1 1.742188 -1.660156 1.265625 -2.515625 C 0.796875 -3.378906 0.5625 -4.382812 0.5625 -5.53125 C 0.5625 -6.6875 0.796875 -7.691406 1.265625 -8.546875 C 1.734375 -9.410156 2.390625 -10.070312 3.234375 -10.53125 C 4.078125 -11 5.050781 -11.234375 6.15625 -11.234375 C 7.226562 -11.234375 8.179688 -11.003906 9.015625 -10.546875 C 9.847656 -10.097656 10.5 -9.457031 10.96875 -8.625 C 11.4375 -7.789062 11.671875 -6.820312 11.671875 -5.71875 Z M 8.203125 -6.609375 C 8.203125 -7.191406 8 -7.65625 7.59375 -8 C 7.195312 -8.34375 6.703125 -8.515625 6.109375 -8.515625 C 5.546875 -8.515625 5.066406 -8.347656 4.671875 -8.015625 C 4.285156 -7.679688 4.046875 -7.210938 3.953125 -6.609375 Z M 8.203125 -6.609375 "/></g></g></g></svg>